<svg xmlns="http://www.w3.org/2000/svg" width="28" height="28" viewBox="0 0 28 28">
    <g fill="none" fill-rule="evenodd" stroke="#000">
        <path d="M10.5 5a2.5 2.5 0 1 1 0 5 2.5 2.5 0 0 1 0-5M17.5 5a2.5 2.5 0 1 1 0 5 2.5 2.5 0 0 1 0-5M22 10a2 2 0 1 1 0 4 2 2 0 0 1 0-4M6 10a2 2 0 1 1 0 4 2 2 0 0 1 0-4M16.888 13.485c-.46-.553-1.514-1.485-2.871-1.485s-2.41.942-2.882 1.495c-.874 1.044-5.422 5.805-5.12 7.883 0 .733.626 2.407 2.339 2.376.362.075 3.035-.706 5.646-.706 2.675 0 5.289.778 5.66.706 1.374 0 2.378-1.046 2.339-2.376 0-.962-1.104-2.73-2.302-4.368-1.145-1.567-2.377-3.015-2.809-3.525z"></path>
    </g>
</svg>