<svg xmlns="http://www.w3.org/2000/svg" width="28" height="28" viewBox="0 0 28 28">
    <g fill="none" fill-rule="evenodd" stroke="#000">
        <path d="M7.915 4.872a5.46 5.46 0 0 0-.042.017l-.055-.114.097.097zm.022-.009l.004.036 3.352 3.371-3.048 3.066L4.85 7.922c-.754 1.932-.275 4.218 1.269 5.771 1.548 1.558 3.776 2.025 5.725 1.257l.306-.12 8.493 8.544c.168.168.394.168.562 0l2.128-2.138c.195-.158.208-.411.05-.536l-8.49-8.542.117-.303c.765-1.964.3-4.208-1.25-5.767-1.53-1.54-3.837-1.988-5.824-1.225zM4.844 7.916l-.078-.079.094.06a5.054 5.054 0 0 0-.008.021l-.008-.002z"></path>
        <path stroke-linecap="square" d="M23 6l-2.205 2.205L19 10"></path>
        <path stroke-linecap="square" stroke-linejoin="round" d="M8 18l-3 3 3 3 4.5-4.5"></path>
    </g>
</svg>