<svg xmlns="http://www.w3.org/2000/svg" width="28" height="28" viewBox="0 0 28 28">
    <g fill="none" fill-rule="evenodd" stroke="#000">
        <path d="M9.486 19.5h9.028l.096.375A3.502 3.502 0 0 0 25.5 19v-.996a17.476 17.476 0 0 0-.007-.41C25.279 11.415 20.2 6.5 14 6.5c-6.023 0-11.015 4.648-11.467 10.619-.007.099-.019.715-.032 1.793L2.5 19a3.5 3.5 0 0 0 6.89.875l.096-.375z"></path>
        <path d="M6 22.5a3.5 3.5 0 1 0 0-7 3.5 3.5 0 0 0 0 7zm16 0a3.5 3.5 0 1 0 0-7 3.5 3.5 0 0 0 0 7zM4.5 11.5h19"></path>
    </g>
</svg>